<mxfile host="app.diagrams.net" agent="Mozilla/5.0 (Windows NT 10.0; Win64; x64) AppleWebKit/537.36 (KHTML, like Gecko) Chrome/129.0.0.0 Safari/537.36 Edg/129.0.0.0" version="24.7.17">
  <diagram id="C5RBs43oDa-KdzZeNtuy" name="Page-1">
    <mxGraphModel dx="2314" dy="1114" grid="1" gridSize="10" guides="1" tooltips="1" connect="1" arrows="1" fold="1" page="1" pageScale="1" pageWidth="827" pageHeight="1169" math="0" shadow="0">
      <root>
        <mxCell id="WIyWlLk6GJQsqaUBKTNV-0" />
        <mxCell id="WIyWlLk6GJQsqaUBKTNV-1" parent="WIyWlLk6GJQsqaUBKTNV-0" />
        <mxCell id="3LYEv-TH_p-ff8kih3CP-37" style="edgeStyle=orthogonalEdgeStyle;rounded=0;orthogonalLoop=1;jettySize=auto;html=1;exitX=1;exitY=0.5;exitDx=0;exitDy=0;entryX=0;entryY=0.5;entryDx=0;entryDy=0;" edge="1" parent="WIyWlLk6GJQsqaUBKTNV-1" source="3LYEv-TH_p-ff8kih3CP-0" target="3LYEv-TH_p-ff8kih3CP-36">
          <mxGeometry relative="1" as="geometry">
            <Array as="points">
              <mxPoint x="320" y="220" />
            </Array>
          </mxGeometry>
        </mxCell>
        <mxCell id="3LYEv-TH_p-ff8kih3CP-0" value="Alumno" style="whiteSpace=wrap;html=1;align=center;" vertex="1" parent="WIyWlLk6GJQsqaUBKTNV-1">
          <mxGeometry x="210" y="195" width="110" height="50" as="geometry" />
        </mxCell>
        <mxCell id="3LYEv-TH_p-ff8kih3CP-49" style="edgeStyle=orthogonalEdgeStyle;rounded=0;orthogonalLoop=1;jettySize=auto;html=1;exitX=1;exitY=0.5;exitDx=0;exitDy=0;entryX=0;entryY=0.5;entryDx=0;entryDy=0;" edge="1" parent="WIyWlLk6GJQsqaUBKTNV-1" source="3LYEv-TH_p-ff8kih3CP-2" target="3LYEv-TH_p-ff8kih3CP-41">
          <mxGeometry relative="1" as="geometry">
            <Array as="points">
              <mxPoint x="260" y="430" />
            </Array>
          </mxGeometry>
        </mxCell>
        <mxCell id="3LYEv-TH_p-ff8kih3CP-2" value="Profesores" style="whiteSpace=wrap;html=1;align=center;" vertex="1" parent="WIyWlLk6GJQsqaUBKTNV-1">
          <mxGeometry x="140" y="410" width="120" height="50" as="geometry" />
        </mxCell>
        <mxCell id="3LYEv-TH_p-ff8kih3CP-13" style="edgeStyle=orthogonalEdgeStyle;rounded=0;orthogonalLoop=1;jettySize=auto;html=1;exitX=1;exitY=0.5;exitDx=0;exitDy=0;entryX=0;entryY=0;entryDx=0;entryDy=0;" edge="1" parent="WIyWlLk6GJQsqaUBKTNV-1" target="3LYEv-TH_p-ff8kih3CP-0">
          <mxGeometry relative="1" as="geometry">
            <mxPoint x="110" y="120" as="sourcePoint" />
          </mxGeometry>
        </mxCell>
        <mxCell id="3LYEv-TH_p-ff8kih3CP-5" value="Nombre" style="ellipse;whiteSpace=wrap;html=1;align=center;" vertex="1" parent="WIyWlLk6GJQsqaUBKTNV-1">
          <mxGeometry x="10" y="150" width="110" height="40" as="geometry" />
        </mxCell>
        <mxCell id="3LYEv-TH_p-ff8kih3CP-15" style="edgeStyle=orthogonalEdgeStyle;rounded=0;orthogonalLoop=1;jettySize=auto;html=1;exitX=1;exitY=0.5;exitDx=0;exitDy=0;entryX=0;entryY=0.5;entryDx=0;entryDy=0;" edge="1" parent="WIyWlLk6GJQsqaUBKTNV-1" source="3LYEv-TH_p-ff8kih3CP-6" target="3LYEv-TH_p-ff8kih3CP-0">
          <mxGeometry relative="1" as="geometry" />
        </mxCell>
        <mxCell id="3LYEv-TH_p-ff8kih3CP-6" value="Fecha de nacimiento" style="ellipse;whiteSpace=wrap;html=1;align=center;" vertex="1" parent="WIyWlLk6GJQsqaUBKTNV-1">
          <mxGeometry x="10" y="200" width="100" height="40" as="geometry" />
        </mxCell>
        <mxCell id="3LYEv-TH_p-ff8kih3CP-16" style="edgeStyle=orthogonalEdgeStyle;rounded=0;orthogonalLoop=1;jettySize=auto;html=1;exitX=1;exitY=0.5;exitDx=0;exitDy=0;entryX=0;entryY=0.75;entryDx=0;entryDy=0;" edge="1" parent="WIyWlLk6GJQsqaUBKTNV-1" source="3LYEv-TH_p-ff8kih3CP-7" target="3LYEv-TH_p-ff8kih3CP-0">
          <mxGeometry relative="1" as="geometry" />
        </mxCell>
        <mxCell id="3LYEv-TH_p-ff8kih3CP-7" value="Teléfono" style="ellipse;whiteSpace=wrap;html=1;align=center;" vertex="1" parent="WIyWlLk6GJQsqaUBKTNV-1">
          <mxGeometry x="10" y="250" width="100" height="40" as="geometry" />
        </mxCell>
        <mxCell id="3LYEv-TH_p-ff8kih3CP-14" style="edgeStyle=orthogonalEdgeStyle;rounded=0;orthogonalLoop=1;jettySize=auto;html=1;exitX=1;exitY=0.5;exitDx=0;exitDy=0;entryX=0;entryY=0.14;entryDx=0;entryDy=0;entryPerimeter=0;" edge="1" parent="WIyWlLk6GJQsqaUBKTNV-1" source="3LYEv-TH_p-ff8kih3CP-5" target="3LYEv-TH_p-ff8kih3CP-0">
          <mxGeometry relative="1" as="geometry" />
        </mxCell>
        <mxCell id="3LYEv-TH_p-ff8kih3CP-17" style="edgeStyle=orthogonalEdgeStyle;rounded=0;orthogonalLoop=1;jettySize=auto;html=1;exitX=0;exitY=0;exitDx=0;exitDy=0;entryX=0;entryY=0.25;entryDx=0;entryDy=0;" edge="1" parent="WIyWlLk6GJQsqaUBKTNV-1" source="3LYEv-TH_p-ff8kih3CP-0" target="3LYEv-TH_p-ff8kih3CP-0">
          <mxGeometry relative="1" as="geometry" />
        </mxCell>
        <mxCell id="3LYEv-TH_p-ff8kih3CP-18" value="ID" style="ellipse;whiteSpace=wrap;html=1;align=center;fontStyle=4;" vertex="1" parent="WIyWlLk6GJQsqaUBKTNV-1">
          <mxGeometry x="10" y="100" width="100" height="40" as="geometry" />
        </mxCell>
        <mxCell id="3LYEv-TH_p-ff8kih3CP-25" style="edgeStyle=orthogonalEdgeStyle;rounded=0;orthogonalLoop=1;jettySize=auto;html=1;exitX=1;exitY=0.5;exitDx=0;exitDy=0;entryX=0;entryY=0.25;entryDx=0;entryDy=0;" edge="1" parent="WIyWlLk6GJQsqaUBKTNV-1" source="3LYEv-TH_p-ff8kih3CP-21" target="3LYEv-TH_p-ff8kih3CP-2">
          <mxGeometry relative="1" as="geometry" />
        </mxCell>
        <mxCell id="3LYEv-TH_p-ff8kih3CP-21" value="NIF" style="ellipse;whiteSpace=wrap;html=1;align=center;fontStyle=4;" vertex="1" parent="WIyWlLk6GJQsqaUBKTNV-1">
          <mxGeometry x="10" y="320" width="100" height="40" as="geometry" />
        </mxCell>
        <mxCell id="3LYEv-TH_p-ff8kih3CP-26" style="edgeStyle=orthogonalEdgeStyle;rounded=0;orthogonalLoop=1;jettySize=auto;html=1;exitX=1;exitY=0.5;exitDx=0;exitDy=0;" edge="1" parent="WIyWlLk6GJQsqaUBKTNV-1" source="3LYEv-TH_p-ff8kih3CP-22">
          <mxGeometry relative="1" as="geometry">
            <mxPoint x="150" y="420" as="targetPoint" />
          </mxGeometry>
        </mxCell>
        <mxCell id="3LYEv-TH_p-ff8kih3CP-22" value="Nombre&lt;span style=&quot;color: rgba(0, 0, 0, 0); font-family: monospace; font-size: 0px; text-align: start; text-wrap: nowrap;&quot;&gt;%3CmxGraphModel%3E%3Croot%3E%3CmxCell%20id%3D%220%22%2F%3E%3CmxCell%20id%3D%221%22%20parent%3D%220%22%2F%3E%3CmxCell%20id%3D%222%22%20value%3D%22Attribute%22%20style%3D%22ellipse%3BwhiteSpace%3Dwrap%3Bhtml%3D1%3Balign%3Dcenter%3B%22%20vertex%3D%221%22%20parent%3D%221%22%3E%3CmxGeometry%20x%3D%2210%22%20y%3D%22150%22%20width%3D%22100%22%20height%3D%2240%22%20as%3D%22geometry%22%2F%3E%3C%2FmxCell%3E%3C%2Froot%3E%3C%2FmxGraphModel%3E&lt;/span&gt;" style="ellipse;whiteSpace=wrap;html=1;align=center;" vertex="1" parent="WIyWlLk6GJQsqaUBKTNV-1">
          <mxGeometry x="10" y="370" width="100" height="40" as="geometry" />
        </mxCell>
        <mxCell id="3LYEv-TH_p-ff8kih3CP-27" style="edgeStyle=orthogonalEdgeStyle;rounded=0;orthogonalLoop=1;jettySize=auto;html=1;exitX=1;exitY=0.5;exitDx=0;exitDy=0;entryX=0;entryY=0.5;entryDx=0;entryDy=0;" edge="1" parent="WIyWlLk6GJQsqaUBKTNV-1" source="3LYEv-TH_p-ff8kih3CP-23" target="3LYEv-TH_p-ff8kih3CP-2">
          <mxGeometry relative="1" as="geometry">
            <mxPoint x="150" y="430" as="targetPoint" />
          </mxGeometry>
        </mxCell>
        <mxCell id="3LYEv-TH_p-ff8kih3CP-23" value="Especialidad" style="ellipse;whiteSpace=wrap;html=1;align=center;" vertex="1" parent="WIyWlLk6GJQsqaUBKTNV-1">
          <mxGeometry x="10" y="420" width="100" height="40" as="geometry" />
        </mxCell>
        <mxCell id="3LYEv-TH_p-ff8kih3CP-28" style="edgeStyle=orthogonalEdgeStyle;rounded=0;orthogonalLoop=1;jettySize=auto;html=1;exitX=1;exitY=0.5;exitDx=0;exitDy=0;entryX=0;entryY=0.75;entryDx=0;entryDy=0;" edge="1" parent="WIyWlLk6GJQsqaUBKTNV-1" source="3LYEv-TH_p-ff8kih3CP-24" target="3LYEv-TH_p-ff8kih3CP-2">
          <mxGeometry relative="1" as="geometry" />
        </mxCell>
        <mxCell id="3LYEv-TH_p-ff8kih3CP-24" value="Teléfono" style="ellipse;whiteSpace=wrap;html=1;align=center;" vertex="1" parent="WIyWlLk6GJQsqaUBKTNV-1">
          <mxGeometry x="10" y="480" width="100" height="40" as="geometry" />
        </mxCell>
        <mxCell id="3LYEv-TH_p-ff8kih3CP-32" style="edgeStyle=orthogonalEdgeStyle;rounded=0;orthogonalLoop=1;jettySize=auto;html=1;exitX=0.5;exitY=0;exitDx=0;exitDy=0;entryX=0.5;entryY=1;entryDx=0;entryDy=0;" edge="1" parent="WIyWlLk6GJQsqaUBKTNV-1" source="3LYEv-TH_p-ff8kih3CP-29" target="3LYEv-TH_p-ff8kih3CP-1">
          <mxGeometry relative="1" as="geometry">
            <Array as="points">
              <mxPoint x="506" y="470" />
              <mxPoint x="646" y="470" />
            </Array>
          </mxGeometry>
        </mxCell>
        <mxCell id="3LYEv-TH_p-ff8kih3CP-29" value="Nombre&lt;span style=&quot;color: rgba(0, 0, 0, 0); font-family: monospace; font-size: 0px; text-align: start; text-wrap: nowrap;&quot;&gt;%3CmxGraphModel%3E%3Croot%3E%3CmxCell%20id%3D%220%22%2F%3E%3CmxCell%20id%3D%221%22%20parent%3D%220%22%2F%3E%3CmxCell%20id%3D%222%22%20value%3D%22Attribute%22%20style%3D%22ellipse%3BwhiteSpace%3Dwrap%3Bhtml%3D1%3Balign%3Dcenter%3B%22%20vertex%3D%221%22%20parent%3D%221%22%3E%3CmxGeometry%20x%3D%2210%22%20y%3D%22150%22%20width%3D%22100%22%20height%3D%2240%22%20as%3D%22geometry%22%2F%3E%3C%2FmxCell%3E%3C%2Froot%3E%3C%2FmxGraphModel%3E&lt;/span&gt;" style="ellipse;whiteSpace=wrap;html=1;align=center;" vertex="1" parent="WIyWlLk6GJQsqaUBKTNV-1">
          <mxGeometry x="456" y="510" width="100" height="40" as="geometry" />
        </mxCell>
        <mxCell id="3LYEv-TH_p-ff8kih3CP-31" value="Código" style="ellipse;whiteSpace=wrap;html=1;align=center;fontStyle=4;" vertex="1" parent="WIyWlLk6GJQsqaUBKTNV-1">
          <mxGeometry x="696" y="510" width="100" height="40" as="geometry" />
        </mxCell>
        <mxCell id="3LYEv-TH_p-ff8kih3CP-34" value="" style="edgeStyle=orthogonalEdgeStyle;rounded=0;orthogonalLoop=1;jettySize=auto;html=1;exitX=0.5;exitY=0;exitDx=0;exitDy=0;" edge="1" parent="WIyWlLk6GJQsqaUBKTNV-1" source="3LYEv-TH_p-ff8kih3CP-31" target="3LYEv-TH_p-ff8kih3CP-1">
          <mxGeometry relative="1" as="geometry">
            <mxPoint x="586" y="420" as="targetPoint" />
            <mxPoint x="686" y="460" as="sourcePoint" />
            <Array as="points">
              <mxPoint x="746" y="470" />
              <mxPoint x="646" y="470" />
            </Array>
          </mxGeometry>
        </mxCell>
        <mxCell id="3LYEv-TH_p-ff8kih3CP-1" value="Asignatura" style="whiteSpace=wrap;html=1;align=center;" vertex="1" parent="WIyWlLk6GJQsqaUBKTNV-1">
          <mxGeometry x="596" y="410" width="100" height="40" as="geometry" />
        </mxCell>
        <mxCell id="3LYEv-TH_p-ff8kih3CP-38" style="edgeStyle=orthogonalEdgeStyle;rounded=0;orthogonalLoop=1;jettySize=auto;html=1;exitX=1;exitY=0.5;exitDx=0;exitDy=0;entryX=0.5;entryY=0;entryDx=0;entryDy=0;" edge="1" parent="WIyWlLk6GJQsqaUBKTNV-1" source="3LYEv-TH_p-ff8kih3CP-36" target="3LYEv-TH_p-ff8kih3CP-1">
          <mxGeometry relative="1" as="geometry">
            <Array as="points">
              <mxPoint x="720" y="220" />
              <mxPoint x="720" y="340" />
            </Array>
          </mxGeometry>
        </mxCell>
        <mxCell id="3LYEv-TH_p-ff8kih3CP-36" value="Matrícula" style="shape=rhombus;perimeter=rhombusPerimeter;whiteSpace=wrap;html=1;align=center;" vertex="1" parent="WIyWlLk6GJQsqaUBKTNV-1">
          <mxGeometry x="460" y="190" width="120" height="60" as="geometry" />
        </mxCell>
        <mxCell id="3LYEv-TH_p-ff8kih3CP-39" value="0,n" style="rounded=1;arcSize=10;whiteSpace=wrap;html=1;align=center;" vertex="1" parent="WIyWlLk6GJQsqaUBKTNV-1">
          <mxGeometry x="354" y="195" width="80" height="20" as="geometry" />
        </mxCell>
        <mxCell id="3LYEv-TH_p-ff8kih3CP-42" style="edgeStyle=orthogonalEdgeStyle;rounded=0;orthogonalLoop=1;jettySize=auto;html=1;exitX=1;exitY=0.5;exitDx=0;exitDy=0;entryX=0;entryY=0.5;entryDx=0;entryDy=0;" edge="1" parent="WIyWlLk6GJQsqaUBKTNV-1" source="3LYEv-TH_p-ff8kih3CP-41" target="3LYEv-TH_p-ff8kih3CP-1">
          <mxGeometry relative="1" as="geometry">
            <Array as="points">
              <mxPoint x="456" y="430" />
            </Array>
          </mxGeometry>
        </mxCell>
        <mxCell id="3LYEv-TH_p-ff8kih3CP-41" value="imparte" style="shape=rhombus;perimeter=rhombusPerimeter;whiteSpace=wrap;html=1;align=center;" vertex="1" parent="WIyWlLk6GJQsqaUBKTNV-1">
          <mxGeometry x="366" y="400" width="120" height="60" as="geometry" />
        </mxCell>
        <mxCell id="3LYEv-TH_p-ff8kih3CP-44" value="1,n" style="rounded=1;arcSize=10;whiteSpace=wrap;html=1;align=center;" vertex="1" parent="WIyWlLk6GJQsqaUBKTNV-1">
          <mxGeometry x="500" y="400" width="80" height="20" as="geometry" />
        </mxCell>
        <mxCell id="3LYEv-TH_p-ff8kih3CP-45" value="10,25" style="rounded=1;arcSize=10;whiteSpace=wrap;html=1;align=center;" vertex="1" parent="WIyWlLk6GJQsqaUBKTNV-1">
          <mxGeometry x="600" y="195" width="80" height="20" as="geometry" />
        </mxCell>
        <mxCell id="3LYEv-TH_p-ff8kih3CP-46" value="1" style="rounded=1;arcSize=10;whiteSpace=wrap;html=1;align=center;" vertex="1" parent="WIyWlLk6GJQsqaUBKTNV-1">
          <mxGeometry x="274" y="440" width="80" height="20" as="geometry" />
        </mxCell>
        <mxCell id="3LYEv-TH_p-ff8kih3CP-47" style="edgeStyle=orthogonalEdgeStyle;rounded=0;orthogonalLoop=1;jettySize=auto;html=1;exitX=0.5;exitY=1;exitDx=0;exitDy=0;entryX=0.875;entryY=1.1;entryDx=0;entryDy=0;entryPerimeter=0;" edge="1" parent="WIyWlLk6GJQsqaUBKTNV-1" source="3LYEv-TH_p-ff8kih3CP-45" target="3LYEv-TH_p-ff8kih3CP-45">
          <mxGeometry relative="1" as="geometry" />
        </mxCell>
      </root>
    </mxGraphModel>
  </diagram>
</mxfile>
